HIERARCHY
ROOT Hips
{
  OFFSET 42.2699 100.178 9.02729
  CHANNELS 6 Xposition Yposition Zposition Zrotation Xrotation Yrotation
  JOINT spine
  {
    OFFSET 0 8.81705 0.507024
    CHANNELS 3 Zrotation Xrotation Yrotation
    JOINT spine1
    {
      OFFSET 0 10.7766 0
      CHANNELS 3 Zrotation Xrotation Yrotation
      JOINT spine2
      {
        OFFSET 0 10.3259 0
        CHANNELS 3 Zrotation Xrotation Yrotation
        JOINT Neck
        {
          OFFSET 0 26.511 1.26395
          CHANNELS 3 Zrotation Xrotation Yrotation
          JOINT Head
          {
            OFFSET 0 8.00966 0
            CHANNELS 3 Zrotation Xrotation Yrotation
            End Site
            {
              OFFSET 0 19.3879 -6.39386
            }
          }
        }
        JOINT RightShoulder
        {
          OFFSET -4.34795 11.1512 -0.605422
          CHANNELS 3 Zrotation Xrotation Yrotation
          JOINT RightArm
          {
            OFFSET 0 14.6258 0
            CHANNELS 3 Zrotation Xrotation Yrotation
            JOINT RightArmRoll
            {
              OFFSET 0 7.3834 0
              CHANNELS 3 Zrotation Xrotation Yrotation
              JOINT RightForeArm
              {
                OFFSET 0 21.5052 0
                CHANNELS 3 Zrotation Xrotation Yrotation
                JOINT RightForeArmRoll
                {
                  OFFSET 0 8.28532 0
                  CHANNELS 3 Zrotation Xrotation Yrotation
                  JOINT RightHand
                  {
                    OFFSET 0 16.6268 0
                    CHANNELS 3 Zrotation Xrotation Yrotation
                    End Site
                    {
                      OFFSET 0 0 0
                    }
                  }
                }
              }
            }
          }
        }
        JOINT LeftShoulder
        {
          OFFSET 4.34795 11.1512 -0.605422
          CHANNELS 3 Zrotation Xrotation Yrotation
          JOINT LeftArm
          {
            OFFSET 0 14.6258 0
            CHANNELS 3 Zrotation Xrotation Yrotation
            JOINT LeftArmRoll
            {
              OFFSET 0 7.3834 0
              CHANNELS 3 Zrotation Xrotation Yrotation
              JOINT LeftForeArm
              {
                OFFSET 0 21.5052 0
                CHANNELS 3 Zrotation Xrotation Yrotation
                JOINT LeftForeArmRoll
                {
                  OFFSET 0 8.28532 0
                  CHANNELS 3 Zrotation Xrotation Yrotation
                  JOINT LeftHand
                  {
                    OFFSET 0 16.6268 0
                    CHANNELS 3 Zrotation Xrotation Yrotation
                    End Site
                    {
                      OFFSET 0 0 0
                    }
                  }
                }
              }
            }
          }
        }
      }
    }
  }
  JOINT RightUpLeg
  {
    OFFSET -7.8151 -1.43309 -1.20217
    CHANNELS 3 Zrotation Xrotation Yrotation
    JOINT RightUpLegRoll
    {
      OFFSET 0 19.4959 0
      CHANNELS 3 Zrotation Xrotation Yrotation
      JOINT RightLeg
      {
        OFFSET 0 -24.1427 0
        CHANNELS 3 Zrotation Xrotation Yrotation
        JOINT RightLegRoll
        {
          OFFSET 0 24.2217 0
          CHANNELS 3 Zrotation Xrotation Yrotation
          JOINT RightFoot
          {
            OFFSET 0 20.1605 0
            CHANNELS 3 Zrotation Xrotation Yrotation
            JOINT RightToeBase
            {
              OFFSET 0 16.8532 0
              CHANNELS 3 Zrotation Xrotation Yrotation
              End Site
              {
                OFFSET 0.00714343 8.16187 -0.940781
              }
            }
          }
        }
      }
    }
  }
  JOINT LeftUpLeg
  {
    OFFSET 7.8151 -1.43309 -1.20217
    CHANNELS 3 Zrotation Xrotation Yrotation
    JOINT LeftUpLegRoll
    {
      OFFSET 0 19.496 0
      CHANNELS 3 Zrotation Xrotation Yrotation
      JOINT LeftLeg
      {
        OFFSET 0 24.1426 0
        CHANNELS 3 Zrotation Xrotation Yrotation
        JOINT LeftLegRoll
        {
          OFFSET 0 24.4456 0
          CHANNELS 3 Zrotation Xrotation Yrotation
          JOINT LeftFoot
          {
            OFFSET 0 19.9366 0
            CHANNELS 3 Zrotation Xrotation Yrotation
            JOINT LeftToeBase
            {
              OFFSET 0 16.8532 0
              CHANNELS 3 Zrotation Xrotation Yrotation
              End Site
              {
                OFFSET -0.0320138 8.16187 -0.94078
              }
            }
          }
        }
      }
    }
  }
}
MOTION
Frames: 13
Frame Time: 0.00208333
44.9453 100.031 6.9937 -1.06621 -2.89627 22.0846 0.212348 -0.980051 0.315094 0.429114 2.04395 0.605718 0.422254 3.68896 0.598946 -7.40485 21.7482 17.5575 -18.9762 -7.8709 11.7746 53.6352 3.61907 3.02824 141.286 31.3497 -82.4877 7.27134e-006 -4.19097e-005 -1.39397e-006 29.9049 77.0697 -23.6191 -1.81961e-005 1.11243e-005 -3.00825 8.02954 -4.95091 0.697432 -65.1705 -9.01069 5.70369 -91.0061 19.5393 16.6957 3.07419e-006 1.0844e-006 -2.89034e-006 -26.588 36.9536 8.92837 1.6507e-005 -6.69959e-006 3 -8.02953 -4.9509 -0.697294 177.052 6.72626 0.944701 180 7.01505e-015 178.752 179.16 21.7638 179.28 1.60011e-006 -1.86848e-007 0.536336 -21.3788 71.3237 22.7556 8.18218 26.9578 -1.19113 -174.312 7.05447 0.390758 4.54188e-006 -4.6773e-006 -0.947134 -2.88692 -15.8082 0.16123 7.80079e-007 -1.62304e-006 -0.214372 20.0157 71.5 -22.7934 -8.13649 25.2327 3.48773 
44.9434 100.035 7.10004 -1.04107 -2.91112 22.1527 0.213072 -0.980673 0.317438 0.430611 2.04281 0.610021 0.423709 3.68782 0.603231 -7.34789 21.7391 17.5276 -19.0235 -7.84069 11.7607 53.7258 3.60164 3.00096 141.065 31.2961 -82.231 7.27134e-006 -4.19097e-005 -1.39397e-006 29.7686 77.1254 -23.5464 -1.81961e-005 1.11243e-005 -3.00825 8.02954 -4.95091 0.697432 -65.1337 -9.00095 5.69772 -91.023 19.5043 16.8275 3.07419e-006 1.0844e-006 -2.89034e-006 -26.5685 37.293 9.02288 1.6507e-005 -6.69959e-006 3 -8.02953 -4.9509 -0.697294 177.027 6.64677 0.933496 180 7.01505e-015 178.754 179.186 21.6718 179.28 1.60011e-006 -1.86848e-007 0.535108 -21.4015 71.3418 22.7743 8.1819 26.9385 -1.21752 -174.315 7.0178 0.405313 4.54188e-006 -4.6773e-006 -0.946351 -2.87126 -15.7542 0.165606 7.80079e-007 -1.62304e-006 -0.213443 19.9587 71.4763 -22.764 -8.13649 25.2327 3.48773 
44.9044 100.037 7.08682 -1.01606 -2.92632 22.2203 0.213845 -0.98122 0.31988 0.432208 2.04181 0.614496 0.425262 3.68682 0.607686 -7.29052 21.7302 17.4975 -19.0708 -7.81088 11.7465 53.8167 3.58413 2.97354 140.846 31.2397 -81.9783 7.27134e-006 -4.19097e-005 -1.39397e-006 29.632 77.1816 -23.4735 -1.81961e-005 1.11243e-005 -3.00825 8.02954 -4.95091 0.697432 -65.0967 -8.99082 5.69152 -91.0405 19.4648 16.9591 3.07419e-006 1.0844e-006 -2.89034e-006 -26.5502 37.6375 9.1204 1.6507e-005 -6.69959e-006 3 -8.02953 -4.9509 -0.697294 177.003 6.56747 0.920461 180 7.01505e-015 178.755 179.214 21.5804 179.279 1.60011e-006 -1.86848e-007 0.533906 -21.4249 71.3605 22.7936 8.18157 26.9191 -1.24402 -174.319 6.98113 0.419981 4.54188e-006 -4.6773e-006 -0.945557 -2.85539 -15.7008 0.17005 7.80079e-007 -1.62304e-006 -0.212584 19.9021 71.4529 -22.7349 -8.13649 25.2327 3.48773 
44.8832 100.047 7.12869 -0.991125 -2.94176 22.2878 0.214653 -0.981714 0.322391 0.433876 2.04091 0.61909 0.426885 3.68592 0.61226 -7.23285 21.7214 17.4672 -19.1182 -7.78135 11.7322 53.9077 3.56656 2.94604 140.629 31.1807 -81.7286 7.27134e-006 -4.19097e-005 -1.39397e-006 29.4951 77.2383 -23.4004 -1.81961e-005 1.11243e-005 -3.00825 8.02954 -4.95091 0.697432 -65.0594 -8.98041 5.68517 -91.0584 19.4221 17.0905 3.07419e-006 1.0844e-006 -2.89034e-006 -26.5334 37.9855 9.22044 1.6507e-005 -6.69959e-006 3 -8.02953 -4.9509 -0.697294 176.979 6.48831 0.906149 180 7.01506e-015 178.757 179.243 21.4895 179.277 1.60011e-006 -1.86848e-007 0.532722 -21.4489 71.3797 22.8134 8.1812 26.8996 -1.27058 -174.322 6.94445 0.434726 4.54188e-006 -4.6773e-006 -0.944757 -2.83938 -15.6479 0.174541 7.80079e-007 -1.62304e-006 -0.211775 19.8457 71.4296 -22.7061 -8.13649 25.2327 3.48773 
44.8725 100.045 7.14117 -0.966217 -2.95734 22.355 0.215482 -0.982177 0.32494 0.435584 2.04006 0.623753 0.428547 3.68507 0.616902 -7.17502 21.7126 17.4368 -19.1657 -7.75198 11.7179 53.9989 3.54897 2.91849 140.414 31.1196 -81.4811 7.27134e-006 -4.19097e-005 -1.39397e-006 29.3577 77.2951 -23.3269 -1.81961e-005 1.11243e-005 -3.00825 8.02954 -4.95091 0.697432 -65.022 -8.96984 5.67873 -91.0763 19.3775 17.2219 3.07419e-006 1.0844e-006 -2.89034e-006 -26.518 38.3354 9.32254 1.6507e-005 -6.69959e-006 3 -8.02953 -4.9509 -0.697294 176.956 6.40923 0.891109 180 7.01506e-015 178.759 179.273 21.3989 179.276 1.60011e-006 -1.86848e-007 0.531547 -21.4732 71.3991 22.8335 8.1808 26.8801 -1.29719 -174.325 6.90777 0.449514 4.54188e-006 -4.6773e-006 -0.943952 -2.8233 -15.5952 0.179059 7.80079e-007 -1.62304e-006 -0.210995 19.7895 71.4065 -22.6774 -8.13649 25.2327 3.48773 
44.8122 100.061 7.0705 -0.941286 -2.97294 22.4223 0.216315 -0.982633 0.327499 0.437302 2.03923 0.628434 0.43022 3.68424 0.621561 -7.11716 21.7038 17.4063 -19.2131 -7.72264 11.7034 54.0901 3.53137 2.89093 140.199 31.0567 -81.2346 7.27134e-006 -4.19097e-005 -1.39397e-006 29.2197 77.352 -23.2528 -1.81961e-005 1.11243e-005 -3.00825 8.02954 -4.95091 0.697432 -64.9846 -8.95923 5.67227 -91.0941 19.3325 17.3531 3.07419e-006 1.0844e-006 -2.89034e-006 -26.5043 38.6856 9.42616 1.6507e-005 -6.69959e-006 3 -8.02953 -4.9509 -0.697294 176.932 6.33016 0.875891 180 7.01507e-015 178.76 179.304 21.3082 179.275 1.60011e-006 -1.86848e-007 0.530376 -21.4976 71.4186 22.8537 8.18038 26.8605 -1.32379 -174.329 6.87109 0.464312 4.54188e-006 -4.6773e-006 -0.943146 -2.80721 -15.5427 0.183582 7.80079e-007 -1.62304e-006 -0.210221 19.7334 71.3834 -22.6489 -8.13649 25.2327 3.48773 
44.8034 100.067 7.10968 -0.916286 -2.98844 22.4896 0.217139 -0.983104 0.330039 0.439 2.03836 0.633079 0.431872 3.68338 0.626186 -7.0594 21.695 17.376 -19.2604 -7.69322 11.6891 54.1812 3.51378 2.8634 139.985 30.9922 -80.9883 7.27134e-006 -4.19097e-005 -1.39397e-006 29.0809 77.4088 -23.1779 -1.81961e-005 1.11243e-005 -3.00825 8.02954 -4.95091 0.697432 -64.9472 -8.94869 5.66586 -91.1116 19.2883 17.4844 3.07419e-006 1.0844e-006 -2.89034e-006 -26.4923 39.0345 9.53078 1.6507e-005 -6.69959e-006 3 -8.02953 -4.9509 -0.697294 176.909 6.25106 0.861047 180 7.01507e-015 178.762 179.334 21.2175 179.273 1.60011e-006 -1.86848e-007 0.529199 -21.5219 71.4379 22.8738 8.17994 26.841 -1.35037 -174.332 6.8344 0.479085 4.54188e-006 -4.6773e-006 -0.942343 -2.79116 -15.4899 0.188088 7.80079e-007 -1.62304e-006 -0.209434 19.6773 71.3602 -22.6204 -8.13649 25.2327 3.48773 
44.7574 100.068 7.07767 -0.891166 -3.00373 22.5571 0.217937 -0.983613 0.332529 0.440648 2.03743 0.63764 0.433476 3.68244 0.630726 -7.00186 21.6861 17.3457 -19.3078 -7.66359 11.6748 54.2721 3.49622 2.83593 139.771 30.9263 -80.7411 7.27134e-006 -4.19097e-005 -1.39397e-006 28.9413 77.4652 -23.1022 -1.81961e-005 1.11243e-005 -3.00825 8.02954 -4.95091 0.697432 -64.91 -8.93836 5.65955 -91.1286 19.2462 17.6156 3.07419e-006 1.0844e-006 -2.89034e-006 -26.4818 39.3807 9.63582 1.6507e-005 -6.69959e-006 3 -8.02953 -4.9509 -0.697294 176.885 6.17185 0.847126 180 7.01508e-015 178.764 179.363 21.1265 179.272 1.60011e-006 -1.86848e-007 0.52801 -21.5459 71.457 22.8936 8.17949 26.8215 -1.37687 -174.335 6.79773 0.493798 4.54188e-006 -4.6773e-006 -0.941544 -2.77523 -15.4369 0.192557 7.80079e-007 -1.62304e-006 -0.208611 19.6212 71.3369 -22.5918 -8.13649 25.2327 3.48773 
44.725 100.068 7.09553 -0.865879 -3.01869 22.6249 0.218696 -0.984182 0.334942 0.442216 2.03639 0.642063 0.435001 3.6814 0.635129 -6.94469 21.6771 17.3157 -19.355 -7.63364 11.6608 54.3628 3.47872 2.80856 139.555 30.8593 -80.4919 7.27134e-006 -4.19097e-005 -1.39397e-006 28.8007 77.5212 -23.0255 -1.81961e-005 1.11243e-005 -3.00825 8.02954 -4.95091 0.697432 -64.873 -8.92835 5.65343 -91.1449 19.2077 17.7469 3.07419e-006 1.0844e-006 -2.89034e-006 -26.473 39.7225 9.74071 1.6507e-005 -6.69959e-006 3 -8.02953 -4.9509 -0.697294 176.86 6.09249 0.834677 180 7.01508e-015 178.765 179.39 21.0349 179.271 1.60011e-006 -1.86848e-007 0.5268 -21.5694 71.4755 22.913 8.17905 26.8021 -1.40328 -174.338 6.76105 0.508419 4.54188e-006 -4.6773e-006 -0.940754 -2.75948 -15.3833 0.196967 7.80079e-007 -1.62304e-006 -0.207731 19.5649 71.3133 -22.563 -8.13649 25.2327 3.48773 
44.6966 100.051 7.07383 -0.840378 -3.03322 22.6931 0.2194 -0.984835 0.337247 0.443675 2.03519 0.646297 0.436417 3.68021 0.639346 -6.888 21.6679 17.286 -19.4022 -7.60324 11.647 54.4531 3.4613 2.78133 139.338 30.7914 -80.2399 7.27134e-006 -4.19097e-005 -1.39397e-006 28.6589 77.5765 -22.9475 -1.81961e-005 1.11243e-005 -3.00825 8.02954 -4.95091 0.697432 -64.8363 -8.91877 5.64755 -91.1603 19.174 17.8783 3.07419e-006 1.0844e-006 -2.89034e-006 -26.4658 40.0585 9.84481 1.6507e-005 -6.69959e-006 3 -8.02953 -4.9509 -0.697294 176.835 6.01292 0.824249 180 7.01508e-015 178.767 179.415 20.9426 179.27 1.60011e-006 -1.86848e-007 0.525562 -21.5921 71.4933 22.9318 8.17863 26.7827 -1.42955 -174.342 6.72438 0.522912 4.54188e-006 -4.6773e-006 -0.939975 -2.74397 -15.3291 0.201297 7.80079e-007 -1.62304e-006 -0.206774 19.5085 71.2895 -22.5341 -8.13649 25.2327 3.48773 
44.6583 100.063 7.08195 -0.814615 -3.0472 22.7619 0.220033 -0.985595 0.339415 0.444993 2.0338 0.650292 0.437695 3.67881 0.643325 -6.83192 21.6585 17.2566 -19.4492 -7.57228 11.6335 54.543 3.44399 2.75429 139.118 30.7226 -79.984 7.27134e-006 -4.19097e-005 -1.39397e-006 28.516 77.631 -22.8682 -1.81961e-005 1.11243e-005 -3.00825 8.02954 -4.95091 0.697432 -64.8 -8.90975 5.64199 -91.1746 19.1464 18.0099 3.07419e-006 1.0844e-006 -2.89034e-006 -26.46 40.387 9.94748 1.6507e-005 -6.69959e-006 3 -8.02953 -4.9509 -0.697294 176.808 5.93308 0.816391 180 7.01509e-015 178.768 179.436 20.8493 179.27 1.60011e-006 -1.86848e-007 0.524288 -21.6139 71.5102 22.9498 8.17822 26.7635 -1.45565 -174.345 6.68772 0.537243 4.54188e-006 -4.6773e-006 -0.939211 -2.72876 -15.2739 0.205526 7.80079e-007 -1.62304e-006 -0.205717 19.4518 71.2652 -22.5048 -8.13649 25.2327 3.48773 
44.6272 100.066 7.13245 -0.788544 -3.06051 22.8312 0.220582 -0.986484 0.341417 0.446142 2.03217 0.653996 0.438806 3.67719 0.647016 -6.77659 21.6488 17.2277 -19.4961 -7.54062 11.6205 54.6324 3.42679 2.72746 138.896 30.6532 -79.7231 7.27134e-006 -4.19097e-005 -1.39397e-006 28.3716 77.6845 -22.7875 -1.81961e-005 1.11243e-005 -3.00825 8.02954 -4.95091 0.697432 -64.7641 -8.9014 5.63681 -91.1878 19.1263 18.1416 3.07419e-006 1.0844e-006 -2.89034e-006 -26.4556 40.7065 10.048 1.6507e-005 -6.69959e-006 3 -8.02953 -4.9509 -0.697294 176.78 5.85291 0.811652 180 7.01509e-015 178.769 179.454 20.755 179.271 1.60011e-006 -1.86848e-007 0.522972 -21.6346 71.526 22.9667 8.17785 26.7443 -1.48155 -174.349 6.65107 0.551379 4.54188e-006 -4.6773e-006 -0.938463 -2.71392 -15.2177 0.209632 7.80079e-007 -1.62304e-006 -0.204541 19.3947 71.2405 -22.4751 -8.13649 25.2327 3.48773 
44.5832 100.063 7.12517 -0.762119 -3.07305 22.9013 0.22103 -0.987525 0.343224 0.44709 2.03027 0.657357 0.43972 3.67528 0.650366 -6.72214 21.6387 17.1993 -19.5429 -7.50816 11.6078 54.7212 3.40975 2.70089 138.67 30.5833 -79.4562 7.27134e-006 -4.19097e-005 -1.39397e-006 28.2258 77.7368 -22.7051 -1.81961e-005 1.11243e-005 -3.00825 8.02954 -4.95091 0.697432 -64.7289 -8.89385 5.63208 -91.1996 19.115 18.2737 3.07419e-006 1.0844e-006 -2.89034e-006 -26.4524 41.0156 10.1458 1.6507e-005 -6.69959e-006 3 -8.02953 -4.9509 -0.697294 176.751 5.77236 0.81058 180 7.01509e-015 178.77 179.467 20.6593 179.272 1.60011e-006 -1.86848e-007 0.521604 -21.6539 71.5406 22.9825 8.17751 26.7253 -1.50722 -174.352 6.61443 0.565284 4.54188e-006 -4.6773e-006 -0.937737 -2.69951 -15.1602 0.213594 7.80079e-007 -1.62304e-006 -0.203223 19.3372 71.2151 -22.445 -8.13649 25.2327 3.48773 
